<svg width="21" height="21" viewBox="0 0 21 21" fill="none" xmlns="http://www.w3.org/2000/svg">
<path d="M18.1209 3.19768C18.1209 3.19768 19.8208 2.53487 19.6791 4.14456C19.6319 4.80738 19.2069 7.12722 18.8764 9.63646L17.7432 17.0695C17.7432 17.0695 17.6488 18.1583 16.7989 18.3477C15.9489 18.5371 14.6741 17.6849 14.438 17.4955C14.2491 17.3535 10.8967 15.223 9.71626 14.1815C9.38573 13.8974 9.00799 13.3293 9.76347 12.6665L14.7213 7.93209C15.2879 7.36396 15.8545 6.03833 13.4936 7.64802L6.88323 12.1457C6.88323 12.1457 6.12776 12.6191 4.71126 12.193L1.64212 11.2462C1.64212 11.2462 0.508905 10.536 2.44482 9.82581C7.16656 7.60064 12.9743 5.32814 18.1209 3.19768Z" fill="#F0E3CA"/>
</svg>
