<svg width="21" height="21" viewBox="0 0 21 21" fill="none" xmlns="http://www.w3.org/2000/svg">
<path d="M20.5241 5.061C20.2878 5.80388 19.9693 6.4505 19.5703 7.03763L19.5869 7.01138C19.1949 7.66471 18.7268 8.41954 18.1826 9.27588C17.7159 9.95196 17.4689 10.302 17.4414 10.3259C17.3207 10.4773 17.2367 10.6628 17.2078 10.8666L17.2069 10.8728C17.2306 11.0583 17.3163 11.2201 17.4414 11.3409L17.7914 11.7311C19.6639 13.6555 20.7171 14.982 20.9511 15.7106C20.9817 15.7911 20.9992 15.8839 20.9992 15.981C20.9992 16.1508 20.9449 16.3074 20.8531 16.436L20.8548 16.4334C20.7008 16.5918 20.4856 16.6898 20.2476 16.6898C20.2213 16.6898 20.1942 16.6889 20.1688 16.6863H20.1723H17.8702C17.8693 16.6863 17.8676 16.6863 17.8658 16.6863C17.5709 16.6863 17.2997 16.583 17.0871 16.4115L17.0897 16.4132C16.7799 16.1586 16.5043 15.883 16.2576 15.5838L16.2497 15.5733C15.8466 15.1177 15.489 14.7341 15.1769 14.4226C14.1374 13.4345 13.3704 12.9404 12.8757 12.9404C12.8573 12.9386 12.8363 12.9378 12.8144 12.9378C12.6701 12.9378 12.5353 12.9824 12.4242 13.0585L12.4268 13.0568C12.3358 13.1705 12.2807 13.3175 12.2807 13.4759C12.2807 13.5074 12.2824 13.5371 12.2868 13.5678V13.5643C12.2632 13.839 12.2492 14.1584 12.2492 14.4813C12.2492 14.5854 12.2509 14.6886 12.2536 14.7919V14.777V15.7911C12.2623 15.8323 12.2676 15.8795 12.2676 15.9276C12.2676 16.1394 12.1713 16.3284 12.0208 16.4535L12.0199 16.4544C11.6813 16.6093 11.2858 16.7003 10.8684 16.7003C10.7792 16.7003 10.6917 16.6959 10.6051 16.688L10.6164 16.6889C9.23919 16.6626 7.96169 16.2593 6.87581 15.5794L6.90644 15.5969C5.58431 14.7936 4.48881 13.748 3.65406 12.5125L3.63044 12.4758C2.83769 11.424 2.09831 10.2358 1.46831 8.98275L1.40706 8.848C1.03869 8.14625 0.657186 7.2835 0.328186 6.39625L0.275686 6.23438C0.141811 5.83538 0.0446855 5.37163 0.00443555 4.89125L0.00268555 4.86938C0.00268555 4.42721 0.262852 4.20613 0.783185 4.20613H3.08444C3.10544 4.20438 3.12994 4.2035 3.15531 4.2035C3.37231 4.2035 3.57269 4.27788 3.73106 4.403L3.72931 4.40125C3.90431 4.59288 4.03381 4.82825 4.09769 5.09075L4.10031 5.10125C4.52381 6.29738 4.97269 7.30188 5.48894 8.26438L5.43031 8.1445C5.85206 8.99325 6.31844 9.72388 6.85044 10.3985L6.83031 10.3714C7.29698 10.9442 7.66098 11.2306 7.92231 11.2306C7.93019 11.2315 7.93981 11.2315 7.95031 11.2315C8.07981 11.2315 8.19269 11.1615 8.25393 11.0565L8.25481 11.0548C8.31956 10.8885 8.35719 10.6951 8.35719 10.4939C8.35719 10.451 8.35544 10.4081 8.35194 10.3661V10.3714V6.97725C8.33356 6.57738 8.23556 6.20375 8.07194 5.86863L8.07894 5.88525C7.97044 5.65425 7.84006 5.45475 7.68519 5.27713L7.68781 5.28063C7.54431 5.13713 7.44631 4.949 7.41569 4.739L7.41481 4.73375C7.41481 4.585 7.48306 4.45113 7.58981 4.36363L7.59069 4.36275C7.69656 4.26563 7.83831 4.207 7.99319 4.207H8.00019H11.6279C11.6472 4.20438 11.6691 4.2035 11.6918 4.2035C11.8624 4.2035 12.0156 4.2805 12.1171 4.40125L12.1179 4.40213C12.2081 4.56663 12.2614 4.7635 12.2614 4.97175C12.2614 5.005 12.2597 5.03738 12.2571 5.06975V5.06538V9.59175C12.2553 9.61275 12.2544 9.63725 12.2544 9.66175C12.2544 9.82275 12.2991 9.97413 12.3761 10.1028L12.3743 10.0993C12.4382 10.1938 12.5449 10.255 12.6657 10.255H12.6666C12.8206 10.2445 12.9606 10.1938 13.0787 10.1133L13.0761 10.115C13.3141 9.95138 13.5188 9.765 13.6964 9.55413L13.6999 9.54975C14.2311 8.9495 14.7211 8.28625 15.1481 7.581L15.1822 7.51975C15.4832 7.021 15.8087 6.40675 16.1036 5.77588L16.1578 5.64725L16.5481 4.86675C16.6837 4.4765 17.0477 4.20175 17.4756 4.20175C17.4922 4.20175 17.5088 4.20175 17.5254 4.20263H17.5228H19.8249C20.4468 4.20263 20.6801 4.48875 20.5249 5.061H20.5241Z" fill="#F0E3CA"/>
</svg>
