<svg width="21" height="21" viewBox="0 0 21 21" fill="none" xmlns="http://www.w3.org/2000/svg">
<g clip-path="url(#clip0_47_1167)">
<path d="M17.64 5.985C15.12 2.1 9.97501 0.945 5.98501 3.36C2.10001 5.775 0.840013 11.025 3.36001 14.91L3.57001 15.225L2.73001 18.375L5.88001 17.535L6.19501 17.745C7.56001 18.48 9.03001 18.9 10.5 18.9C12.075 18.9 13.65 18.48 15.015 17.64C18.9 15.12 20.055 9.975 17.64 5.985ZM15.435 14.07C15.015 14.7 14.49 15.12 13.755 15.225C13.335 15.225 12.81 15.435 10.71 14.595C8.92501 13.755 7.45501 12.39 6.40501 10.815C5.77501 10.08 5.46001 9.135 5.35501 8.19C5.35501 7.35 5.67001 6.615 6.19501 6.09C6.40501 5.88 6.61501 5.775 6.82501 5.775H7.35001C7.56001 5.775 7.77001 5.775 7.87501 6.195C8.08501 6.72 8.61001 7.98 8.61001 8.085C8.71501 8.19 8.71501 8.4 8.61001 8.505C8.71501 8.715 8.61001 8.925 8.50501 9.03C8.40001 9.135 8.29501 9.345 8.19001 9.45C7.98001 9.555 7.87501 9.765 7.98001 9.975C8.40001 10.605 8.92501 11.235 9.45001 11.76C10.08 12.285 10.71 12.705 11.445 13.02C11.655 13.125 11.865 13.125 11.97 12.915C12.075 12.705 12.6 12.18 12.81 11.97C13.02 11.76 13.125 11.76 13.335 11.865L15.015 12.705C15.225 12.81 15.435 12.915 15.54 13.02C15.645 13.335 15.645 13.755 15.435 14.07Z" fill="#F0E3CA"/>
</g>
<defs>
<clipPath id="clip0_47_1167">
<rect width="21" height="21" fill="white"/>
</clipPath>
</defs>
</svg>
